<svg width="26" height="26" viewBox="0 0 26 26" fill="none" xmlns="http://www.w3.org/2000/svg">
<path d="M4.10992 13.0316C4.69185 10.1219 4.98282 8.66706 5.94424 7.73005C6.12193 7.55687 6.31418 7.39927 6.51884 7.25899C7.62621 6.5 9.10985 6.5 12.0771 6.5H13.922C16.8893 6.5 18.3729 6.5 19.4803 7.25899C19.6849 7.39927 19.8772 7.55687 20.0549 7.73005C21.0163 8.66706 21.3073 10.1219 21.8892 13.0316C22.7247 17.2089 23.1424 19.2976 22.1808 20.7776C22.0067 21.0456 21.8034 21.2935 21.5748 21.5168C20.3121 22.75 18.1821 22.75 13.922 22.75H12.0771C7.81707 22.75 5.68704 22.75 4.42433 21.5168C4.1957 21.2935 3.99247 21.0456 3.81835 20.7776C2.85672 19.2976 3.27445 17.2089 4.10992 13.0316Z" stroke="#081035" stroke-width="1.625"/>
<circle cx="16.25" cy="9.74999" r="1.08333" fill="#081035"/>
<circle cx="9.75002" cy="9.74999" r="1.08333" fill="#081035"/>
<path d="M9.75 6.49999V5.41666C9.75 3.62173 11.2051 2.16666 13 2.16666C14.7949 2.16666 16.25 3.62173 16.25 5.41666V6.49999" stroke="#081035" stroke-width="1.625" stroke-linecap="round"/>
</svg>
