<svg width="214" height="68" viewBox="0 0 214 68" fill="none" xmlns="http://www.w3.org/2000/svg">
<g clip-path="url(#clip0_101_1356)">
<path d="M17.19 19.16C26.23 10.62 36.22 3.92001 49.16 3.39001C55.4 3.13001 60.66 5.72001 65.56 9.47001C66.88 10.48 69.35 10.83 71 10.4C79.45 8.18001 87.72 5.23001 96.24 3.35001C99.59 2.61001 103.4 3.96001 107.01 4.35001C111.48 9.89001 115.79 10.91 122.77 7.02001C132.25 1.73001 142.98 -0.34999 154.12 2.34001C159.84 3.72001 163.99 6.76001 166.51 11.61C174.3 8.93001 181.94 5.69001 189.9 3.72001C197.59 1.81001 205.6 1.20001 213.48 0.0100098C213.6 0.70001 213.72 1.40001 213.84 2.09001C211.25 2.54001 208.62 2.86001 206.07 3.48001C195.63 5.99001 185.17 8.45001 174.79 11.2C169.91 12.5 167.95 15.52 168.46 21.13C169.3 30.29 167.1 38.92 160.04 45.6C156.55 48.91 151.16 50.19 148.69 48.35C145.89 46.26 144.72 40.25 147.31 36.37C151.51 30.09 156.14 24.04 161.09 18.32C164.45 14.44 164.86 11.98 160.72 8.57001C152.77 2.02001 143.58 2.79001 134.6 5.23001C128.25 6.95001 122.25 9.96001 115.72 12.54C116.65 15.61 117.58 18.04 118.11 20.55C120.73 32.91 115.5 42.53 107.03 50.8C104.32 53.44 101.23 55.82 97.99 57.76C90.68 62.14 86.23 59.55 86.2 51.02C86.17 41.65 89.32 33.35 95.75 26.57C100.48 21.58 105.69 17.04 111.37 11.65C110.27 11.02 108.77 10.16 107.28 9.29001C105.05 8.04001 102.92 5.96001 100.57 5.67001C90.05 4.37001 80.94 9.16001 71.79 13.35C71.36 13.55 71.79 15.6 71.82 16.79C75.03 37.57 66.84 53.26 49.96 64.77C43.71 69.03 36.82 68.22 33.83 62.65C32.12 59.46 31.71 54.92 32.34 51.26C34.33 39.65 41.8 31.24 50.19 23.57C51.29 22.56 52.44 21.61 53.57 20.63C57.34 18.18 61.1 15.73 65.06 13.15C59.27 7.11001 52.69 4.29001 45.3 5.93001C33.21 8.62001 23.19 15.02 15.98 25.36C8.12 33.22 4.34 43.21 1.38 53.62C0.92 53.51 0.46 53.4 0 53.29C0.52 50.24 0.53 46.98 1.67 44.18C3.52 39.66 6.19 35.47 8.35 31.07C9.04 29.67 9.24 28.03 9.67 26.5C10.18 25.71 10.68 24.91 11.19 24.12C13.19 22.47 15.19 20.81 17.19 19.16ZM66.34 14.41C59.22 20.28 51.97 25.11 46.22 31.32C40.22 37.81 34.8 45.22 34.98 54.98C35.15 63.85 40.42 66.87 48.17 62.41C59.22 56.06 64.84 45.55 68.56 34.1C70.48 28.23 70.78 21.74 66.34 14.41ZM113.22 14.97C104.42 20.13 97.57 26.48 93.23 35.37C90.52 40.93 88.58 46.6 89.36 52.95C89.84 56.87 91.76 57.8 95.08 56.08C107.14 49.84 121.46 34.19 113.22 14.97ZM165.57 17.83C157.36 24.03 152.43 31.64 149.19 40.32C148.62 41.84 149.89 45.52 151.02 45.86C152.76 46.39 155.59 45.46 157.14 44.17C165.15 37.49 166.11 28.36 165.57 17.83Z" fill="#333333"/>
</g>
<defs>
<clipPath id="clip0_101_1356">
<rect width="213.83" height="67.48" fill="white"/>
</clipPath>
</defs>
</svg>
